<svg xmlns="http://www.w3.org/2000/svg" viewBox="0 0 100 100">
<defs><clipPath id="cut"><path d="M50 5L95 90H5Z"/></clipPath><linearGradient id="brass" x1="0" y1="0" x2=".8" y2="1"><stop stop-color="#f0ddb0"/><stop offset=".18" stop-color="#b49a61"/><stop offset=".43" stop-color="#6d603e"/><stop offset=".52" stop-color="#b29a66"/><stop offset=".8" stop-color="#675938"/><stop offset="1" stop-color="#332f21"/></linearGradient><linearGradient id="enamel" x1="0" y1="0" x2="1" y2="1"><stop stop-color="#345346"/><stop offset=".34" stop-color="#152c24"/><stop offset="1" stop-color="#071714"/></linearGradient><linearGradient id="rim" x2=".3" y2="1"><stop stop-color="#f0dca5"/><stop offset=".5" stop-color="#977d47"/><stop offset="1" stop-color="#463d2a"/></linearGradient><radialGradient id="gem" cx=".32" cy=".25" r=".8"><stop stop-color="#d5ede1"/><stop offset=".2" stop-color="#90baad"/><stop offset=".47" stop-color="#3c7d76"/><stop offset=".75" stop-color="#17433e"/><stop offset="1" stop-color="#081d1c"/></radialGradient></defs>
<path d="M50 5L95 90H5Z" fill="url(#brass)" stroke="#171d15" stroke-width="2"/>
<g clip-path="url(#cut)"><path d="M50 5L95 90H5Z" fill="none" stroke="#383420" stroke-width="8"/><path d="M4 8l85 74M8 7l85 74M2 42l59 51M28 3l63 56" stroke="#edd9aa" stroke-width=".4" opacity=".13"/><path d="M50 19L81 80H19Z" fill="url(#enamel)" stroke="url(#rim)" stroke-width="1.3"/><path d="M50 26L74 75H26Z" fill="none" stroke="#63816a" stroke-width=".6" opacity=".6"/>
<path d="M29 73v-8l12-15m30 23v-8L59 50M35 77v-10l9-11m21 21v-10l-9-11" fill="none" stroke="#b49b63" stroke-width="1.4"/>
<path d="M50 31l8 12-2 18-6 8-6-8-2-18Z" fill="#081711" stroke="url(#rim)" stroke-width="2.8"/><path d="M50 34l5 10-2 15-3 6-3-6-2-15Z" fill="url(#gem)"/><path d="M50 35l-2 24m2-24l4 10-4 7-4-7Z" fill="#add6c7" opacity=".25"/>
<path d="M30 84h40" stroke="#151a12" stroke-width="5"/><path d="M32 83v3m6-3v3m6-3v3m6-3v3m6-3v3m6-3v3m6-3v3" stroke="#d0b777" stroke-width="2"/><circle cx="50" cy="15" r="2.3" fill="#171c15" stroke="#aa915b" stroke-width=".6"/><path d="M48.8 16.2l2.4-2.4" stroke="#bca579" stroke-width=".8"/><circle cx="16" cy="84" r="2.3" fill="#171c15" stroke="#aa915b" stroke-width=".6"/><path d="M14.8 85.2l2.4-2.4" stroke="#bca579" stroke-width=".8"/><circle cx="84" cy="84" r="2.3" fill="#171c15" stroke="#aa915b" stroke-width=".6"/><path d="M82.8 85.2l2.4-2.4" stroke="#bca579" stroke-width=".8"/><path d="M50 5L95 90H5Z" fill="none" stroke="url(#rim)" stroke-width="2"/></g>
</svg>
